<?xml version="1.0" encoding="UTF-8"?><svg xmlns="http://www.w3.org/2000/svg" xmlns:xlink="http://www.w3.org/1999/xlink" height="505.4" preserveAspectRatio="xMidYMid meet" version="1.0" viewBox="-11.6 0.0 486.5 505.4" width="486.5" zoomAndPan="magnify"><g id="change1_1"><path d="M197.9,143.2c-32.9,0-59.5-32.1-59.5-71.6S165,0,197.9,0s59.5,32.1,59.5,71.6S230.7,143.2,197.9,143.2z M235.3,258c-39.3,4.6-68,34.7-64.3,67.4s38.7,55.4,78,50.8c39.3-4.6,68-34.7,64.3-67.4C309.5,276.2,274.6,253.4,235.3,258z M409,138.6c-30.4-25.3-72.1-25.2-93.1,0c-21,25.3-13.3,66.2,17.1,91.5s72.1,25.2,93.1,0C447.1,204.8,439.4,163.8,409,138.6z" fill="#5AC152"/></g><g id="change2_1"><path d="M238.6,361.9c0,1.4-1.1,2.5-2.5,2.5c-1.4,0-2.5-1.1-2.5-2.5c0-1.4,1.1-2.5,2.5-2.5 C237.4,359.4,238.6,360.5,238.6,361.9z M187.1,291c-1.4,0-2.5,1.1-2.5,2.5s1.1,2.5,2.5,2.5c1.4,0,2.5-1.1,2.5-2.5 S188.5,291,187.1,291z M203.4,337.6c-1.4,0-2.5,1.1-2.5,2.5c0,1.4,1.1,2.5,2.5,2.5c1.4,0,2.5-1.1,2.5-2.5 C205.9,338.8,204.8,337.6,203.4,337.6z M187.1,337.6c-1.4,0-2.5,1.1-2.5,2.5c0,1.4,1.1,2.5,2.5,2.5c1.4,0,2.5-1.1,2.5-2.5 C189.6,338.8,188.5,337.6,187.1,337.6z M193.8,141.8c-0.8,0-1.6,0.4-2,1c1.4,0.2,2.8,0.3,4.2,0.3 C195.5,142.4,194.7,141.8,193.8,141.8z M187.1,314.3c-1.4,0-2.5,1.1-2.5,2.5c0,1.4,1.1,2.5,2.5,2.5c1.4,0,2.5-1.1,2.5-2.5 C189.6,315.4,188.5,314.3,187.1,314.3z M237.5,110.1c0-1.4-1.1-2.5-2.5-2.5c-1.4,0-2.5,1.1-2.5,2.5c0,1.4,1.1,2.5,2.5,2.5 C236.4,112.7,237.5,111.5,237.5,110.1z M235,45c1.4,0,2.5-1.1,2.5-2.5c0-1.4-1.1-2.5-2.5-2.5c-1.4,0-2.5,1.1-2.5,2.5 C232.4,43.9,233.6,45,235,45z M235,89.3c1.4,0,2.5-1.1,2.5-2.5c0-1.4-1.1-2.5-2.5-2.5c-1.4,0-2.5,1.1-2.5,2.5 C232.4,88.2,233.6,89.3,235,89.3z M236,337.6c-1.4,0-2.5,1.1-2.5,2.5c0,1.4,1.1,2.5,2.5,2.5c1.4,0,2.5-1.1,2.5-2.5 C238.6,338.8,237.4,337.6,236,337.6z M203.4,314.3c-1.4,0-2.5,1.1-2.5,2.5c0,1.4,1.1,2.5,2.5,2.5c1.4,0,2.5-1.1,2.5-2.5 C205.9,315.4,204.8,314.3,203.4,314.3z M235,66c1.4,0,2.5-1.1,2.5-2.5c0-1.4-1.1-2.5-2.5-2.5c-1.4,0-2.5,1.1-2.5,2.5 C232.4,64.9,233.6,66,235,66z M203.4,291c-1.4,0-2.5,1.1-2.5,2.5s1.1,2.5,2.5,2.5c1.4,0,2.5-1.1,2.5-2.5S204.8,291,203.4,291z M203.4,359.4c-1.4,0-2.5,1.1-2.5,2.5c0,1.4,1.1,2.5,2.5,2.5c1.4,0,2.5-1.1,2.5-2.5C205.9,360.5,204.8,359.4,203.4,359.4z M186,112.7c1.4,0,2.5-1.1,2.5-2.5c0-1.4-1.1-2.5-2.5-2.5c-1.4,0-2.5,1.1-2.5,2.5C183.4,111.5,184.6,112.7,186,112.7z M186,89.3 c1.4,0,2.5-1.1,2.5-2.5c0-1.4-1.1-2.5-2.5-2.5c-1.4,0-2.5,1.1-2.5,2.5C183.4,88.2,184.6,89.3,186,89.3z M186,21.7 c1.4,0,2.5-1.1,2.5-2.5c0-1.4-1.1-2.5-2.5-2.5c-1.4,0-2.5,1.1-2.5,2.5C183.4,20.5,184.6,21.7,186,21.7z M186,66 c1.4,0,2.5-1.1,2.5-2.5c0-1.4-1.1-2.5-2.5-2.5c-1.4,0-2.5,1.1-2.5,2.5C183.4,64.9,184.6,66,186,66z M186,45c1.4,0,2.5-1.1,2.5-2.5 c0-1.4-1.1-2.5-2.5-2.5c-1.4,0-2.5,1.1-2.5,2.5C183.4,43.9,184.6,45,186,45z M177.4,101c1.4,0,2.5-1.1,2.5-2.5 c0-1.4-1.1-2.5-2.5-2.5c-1.4,0-2.5,1.1-2.5,2.5C174.9,99.9,176,101,177.4,101z M180,121.8c0-1.4-1.1-2.5-2.5-2.5 c-1.4,0-2.5,1.1-2.5,2.5c0,1.4,1.1,2.5,2.5,2.5C178.8,124.3,180,123.2,180,121.8z M193.8,77.7c1.4,0,2.5-1.1,2.5-2.5 s-1.1-2.5-2.5-2.5c-1.4,0-2.5,1.1-2.5,2.5S192.4,77.7,193.8,77.7z M193.8,55.9c1.4,0,2.5-1.1,2.5-2.5s-1.1-2.5-2.5-2.5 c-1.4,0-2.5,1.1-2.5,2.5S192.4,55.9,193.8,55.9z M193.8,124.3c1.4,0,2.5-1.1,2.5-2.5c0-1.4-1.1-2.5-2.5-2.5c-1.4,0-2.5,1.1-2.5,2.5 C191.2,123.2,192.4,124.3,193.8,124.3z M188.5,133.5c0-1.4-1.1-2.5-2.5-2.5c-1.4,0-2.5,1.1-2.5,2.5c0,1.4,1.1,2.5,2.5,2.5 C187.4,136,188.5,134.9,188.5,133.5z M193.8,101c1.4,0,2.5-1.1,2.5-2.5c0-1.4-1.1-2.5-2.5-2.5c-1.4,0-2.5,1.1-2.5,2.5 C191.2,99.9,192.4,101,193.8,101z M193.8,10c1.4,0,2.5-1.1,2.5-2.5S195.2,5,193.8,5c-1.4,0-2.5,1.1-2.5,2.5S192.4,10,193.8,10z M193.8,33.3c1.4,0,2.5-1.1,2.5-2.5c0-1.4-1.1-2.5-2.5-2.5c-1.4,0-2.5,1.1-2.5,2.5C191.2,32.2,192.4,33.3,193.8,33.3z M251.3,66 c1.4,0,2.5-1.1,2.5-2.5c0-1.4-1.1-2.5-2.5-2.5c-1.4,0-2.5,1.1-2.5,2.5C248.8,64.9,249.9,66,251.3,66z M226.4,10 c0.5,0,0.9-0.1,1.3-0.4c-1.2-0.9-2.5-1.7-3.8-2.4c0,0.1,0,0.2,0,0.3C223.9,8.9,225,10,226.4,10z M218.6,112.7c1.4,0,2.5-1.1,2.5-2.5 c0-1.4-1.1-2.5-2.5-2.5c-1.4,0-2.5,1.1-2.5,2.5C216.1,111.5,217.2,112.7,218.6,112.7z M226.4,33.3c1.4,0,2.5-1.1,2.5-2.5 c0-1.4-1.1-2.5-2.5-2.5c-1.4,0-2.5,1.1-2.5,2.5C223.9,32.2,225,33.3,226.4,33.3z M226.4,77.7c1.4,0,2.5-1.1,2.5-2.5 s-1.1-2.5-2.5-2.5c-1.4,0-2.5,1.1-2.5,2.5S225,77.7,226.4,77.7z M226.4,55.9c1.4,0,2.5-1.1,2.5-2.5s-1.1-2.5-2.5-2.5 c-1.4,0-2.5,1.1-2.5,2.5S225,55.9,226.4,55.9z M221.2,133.5c0-1.4-1.1-2.5-2.5-2.5c-1.4,0-2.5,1.1-2.5,2.5c0,1.4,1.1,2.5,2.5,2.5 C220,136,221.2,134.9,221.2,133.5z M212.6,121.8c0-1.4-1.1-2.5-2.5-2.5c-1.4,0-2.5,1.1-2.5,2.5c0,1.4,1.1,2.5,2.5,2.5 C211.5,124.3,212.6,123.2,212.6,121.8z M218.6,21.7c1.4,0,2.5-1.1,2.5-2.5c0-1.4-1.1-2.5-2.5-2.5c-1.4,0-2.5,1.1-2.5,2.5 C216.1,20.5,217.2,21.7,218.6,21.7z M236,314.3c-1.4,0-2.5,1.1-2.5,2.5c0,1.4,1.1,2.5,2.5,2.5c1.4,0,2.5-1.1,2.5-2.5 C238.6,315.4,237.4,314.3,236,314.3z M226.4,124.3c1.4,0,2.5-1.1,2.5-2.5c0-1.4-1.1-2.5-2.5-2.5c-1.4,0-2.5,1.1-2.5,2.5 C223.9,123.2,225,124.3,226.4,124.3z M218.6,66c1.4,0,2.5-1.1,2.5-2.5c0-1.4-1.1-2.5-2.5-2.5c-1.4,0-2.5,1.1-2.5,2.5 C216.1,64.9,217.2,66,218.6,66z M218.6,89.3c1.4,0,2.5-1.1,2.5-2.5c0-1.4-1.1-2.5-2.5-2.5c-1.4,0-2.5,1.1-2.5,2.5 C216.1,88.2,217.2,89.3,218.6,89.3z M218.6,45c1.4,0,2.5-1.1,2.5-2.5c0-1.4-1.1-2.5-2.5-2.5c-1.4,0-2.5,1.1-2.5,2.5 C216.1,43.9,217.2,45,218.6,45z M210.1,101c1.4,0,2.5-1.1,2.5-2.5c0-1.4-1.1-2.5-2.5-2.5c-1.4,0-2.5,1.1-2.5,2.5 C207.6,99.9,208.7,101,210.1,101z M242.2,119.3c-1.1,0.3-2,1.3-2,2.5c0,0,0,0,0,0.1C240.9,121,241.6,120.2,242.2,119.3z M242.7,77.7 c1.4,0,2.5-1.1,2.5-2.5s-1.1-2.5-2.5-2.5c-1.4,0-2.5,1.1-2.5,2.5S241.3,77.7,242.7,77.7z M242.7,33.3c1.4,0,2.5-1.1,2.5-2.5 c0-1.4-1.1-2.5-2.5-2.5c-1.4,0-2.5,1.1-2.5,2.5C240.2,32.2,241.3,33.3,242.7,33.3z M242.7,55.9c1.4,0,2.5-1.1,2.5-2.5 s-1.1-2.5-2.5-2.5c-1.4,0-2.5,1.1-2.5,2.5S241.3,55.9,242.7,55.9z M236,291c-1.4,0-2.5,1.1-2.5,2.5s1.1,2.5,2.5,2.5 c1.4,0,2.5-1.1,2.5-2.5S237.4,291,236,291z M236,267.6c-1.4,0-2.5,1.1-2.5,2.5c0,1.4,1.1,2.5,2.5,2.5c1.4,0,2.5-1.1,2.5-2.5 C238.6,268.8,237.4,267.6,236,267.6z M235,21.7c1.4,0,2.5-1.1,2.5-2.5c0-0.5-0.1-0.9-0.4-1.3c-0.3-0.3-0.5-0.5-0.8-0.8 c-0.4-0.3-0.9-0.4-1.4-0.4c-1.4,0-2.5,1.1-2.5,2.5C232.4,20.5,233.6,21.7,235,21.7z M251.3,45c0.6,0,1.2-0.2,1.6-0.6 c-0.5-1.5-1.1-3-1.7-4.5c-1.4,0-2.5,1.2-2.5,2.5C248.8,43.9,249.9,45,251.3,45z M226.4,101c1.4,0,2.5-1.1,2.5-2.5 c0-1.4-1.1-2.5-2.5-2.5c-1.4,0-2.5,1.1-2.5,2.5C223.9,99.9,225,101,226.4,101z M242.7,101c1.4,0,2.5-1.1,2.5-2.5 c0-1.4-1.1-2.5-2.5-2.5c-1.4,0-2.5,1.1-2.5,2.5C240.2,99.9,241.3,101,242.7,101z M257.3,73.3c-0.5,0.5-0.8,1.1-0.8,1.8 c0,0.6,0.2,1.2,0.6,1.7C257.2,75.6,257.3,74.5,257.3,73.3z M177.4,77.7c1.4,0,2.5-1.1,2.5-2.5s-1.1-2.5-2.5-2.5 c-1.4,0-2.5,1.1-2.5,2.5S176,77.7,177.4,77.7z M253.8,86.8c0-1.4-1.1-2.5-2.5-2.5c-1.4,0-2.5,1.1-2.5,2.5c0,1.4,1.1,2.5,2.5,2.5 C252.7,89.3,253.8,88.2,253.8,86.8z M177.4,10c1.4,0,2.5-1.1,2.5-2.5S178.8,5,177.4,5c-1.4,0-2.5,1.1-2.5,2.5S176,10,177.4,10z M260.2,326c-1.4,0-2.5,1.1-2.5,2.5c0,1.4,1.1,2.5,2.5,2.5c1.4,0,2.5-1.1,2.5-2.5C262.7,327.1,261.6,326,260.2,326z M260.2,348.5 c-1.4,0-2.5,1.1-2.5,2.5c0,1.4,1.1,2.5,2.5,2.5c1.4,0,2.5-1.1,2.5-2.5C262.7,349.7,261.6,348.5,260.2,348.5z M227.5,348.5 c-1.4,0-2.5,1.1-2.5,2.5c0,1.4,1.1,2.5,2.5,2.5c1.4,0,2.5-1.1,2.5-2.5C230,349.7,228.9,348.5,227.5,348.5z M260.2,302.6 c-1.4,0-2.5,1.1-2.5,2.5c0,1.4,1.1,2.5,2.5,2.5c1.4,0,2.5-1.1,2.5-2.5C262.7,303.8,261.6,302.6,260.2,302.6z M268.7,314.3 c-1.4,0-2.5,1.1-2.5,2.5c0,1.4,1.1,2.5,2.5,2.5c1.4,0,2.5-1.1,2.5-2.5C271.2,315.4,270.1,314.3,268.7,314.3z M268.7,291 c-1.4,0-2.5,1.1-2.5,2.5s1.1,2.5,2.5,2.5c1.4,0,2.5-1.1,2.5-2.5S270.1,291,268.7,291z M268.7,267.6c-1.4,0-2.5,1.1-2.5,2.5 c0,1.4,1.1,2.5,2.5,2.5c1.4,0,2.5-1.1,2.5-2.5C271.2,268.8,270.1,267.6,268.7,267.6z M243.8,302.6c-1.4,0-2.5,1.1-2.5,2.5 c0,1.4,1.1,2.5,2.5,2.5c1.4,0,2.5-1.1,2.5-2.5C246.4,303.8,245.2,302.6,243.8,302.6z M243.8,326c-1.4,0-2.5,1.1-2.5,2.5 c0,1.4,1.1,2.5,2.5,2.5c1.4,0,2.5-1.1,2.5-2.5C246.4,327.1,245.2,326,243.8,326z M268.7,359.4c-1.4,0-2.5,1.1-2.5,2.5 c0,1.4,1.1,2.5,2.5,2.5c1.4,0,2.5-1.1,2.5-2.5C271.2,360.5,270.1,359.4,268.7,359.4z M227.5,326c-1.4,0-2.5,1.1-2.5,2.5 c0,1.4,1.1,2.5,2.5,2.5c1.4,0,2.5-1.1,2.5-2.5C230,327.1,228.9,326,227.5,326z M243.8,371.1c-1.4,0-2.5,1.1-2.5,2.5 c0,1.4,1.1,2.5,2.5,2.5c1.4,0,2.5-1.1,2.5-2.5C246.4,372.2,245.2,371.1,243.8,371.1z M245.3,258.7c0-0.5-0.1-0.9-0.3-1.2 c-1.5,0-3,0.1-4.5,0.1c-0.2,0.3-0.3,0.7-0.3,1.1c0,1.4,1.1,2.5,2.5,2.5C244.1,261.2,245.3,260.1,245.3,258.7z M243.8,348.5 c-1.4,0-2.5,1.1-2.5,2.5c0,1.4,1.1,2.5,2.5,2.5c1.4,0,2.5-1.1,2.5-2.5C246.4,349.7,245.2,348.5,243.8,348.5z M260.2,279.3 c-1.4,0-2.5,1.1-2.5,2.5c0,1.4,1.1,2.5,2.5,2.5c1.4,0,2.5-1.1,2.5-2.5C262.7,280.4,261.6,279.3,260.2,279.3z M292.8,348.5 c-1.4,0-2.5,1.1-2.5,2.5c0,1.4,1.1,2.5,2.5,2.5c1.4,0,2.5-1.1,2.5-2.5C295.3,349.7,294.2,348.5,292.8,348.5z M292.8,302.6 c-1.4,0-2.5,1.1-2.5,2.5c0,1.4,1.1,2.5,2.5,2.5c1.4,0,2.5-1.1,2.5-2.5C295.3,303.8,294.2,302.6,292.8,302.6z M292.8,279.3 c-1.4,0-2.5,1.1-2.5,2.5c0,1.4,1.1,2.5,2.5,2.5c1.4,0,2.5-1.1,2.5-2.5C295.3,280.4,294.2,279.3,292.8,279.3z M284.7,267.7 c-1.2,0.2-2.2,1.2-2.2,2.5c0,1.4,1.1,2.5,2.5,2.5c1.4,0,2.5-1.1,2.5-2.5c0-0.3-0.1-0.6-0.2-0.8C286.5,268.8,285.6,268.2,284.7,267.7 z M285,314.3c-1.4,0-2.5,1.1-2.5,2.5c0,1.4,1.1,2.5,2.5,2.5c1.4,0,2.5-1.1,2.5-2.5C287.6,315.4,286.4,314.3,285,314.3z M268.7,337.6 c-1.4,0-2.5,1.1-2.5,2.5c0,1.4,1.1,2.5,2.5,2.5c1.4,0,2.5-1.1,2.5-2.5C271.2,338.8,270.1,337.6,268.7,337.6z M292.8,326 c-1.4,0-2.5,1.1-2.5,2.5c0,1.4,1.1,2.5,2.5,2.5c1.4,0,2.5-1.1,2.5-2.5C295.3,327.1,294.2,326,292.8,326z M285,337.6 c-1.4,0-2.5,1.1-2.5,2.5c0,1.4,1.1,2.5,2.5,2.5c1.4,0,2.5-1.1,2.5-2.5C287.6,338.8,286.4,337.6,285,337.6z M276.5,279.3 c-1.4,0-2.5,1.1-2.5,2.5c0,1.4,1.1,2.5,2.5,2.5c1.4,0,2.5-1.1,2.5-2.5C279,280.4,277.9,279.3,276.5,279.3z M177.4,55.9 c1.4,0,2.5-1.1,2.5-2.5s-1.1-2.5-2.5-2.5c-1.4,0-2.5,1.1-2.5,2.5S176,55.9,177.4,55.9z M276.5,302.6c-1.4,0-2.5,1.1-2.5,2.5 c0,1.4,1.1,2.5,2.5,2.5c1.4,0,2.5-1.1,2.5-2.5C279,303.8,277.9,302.6,276.5,302.6z M285,291c-1.4,0-2.5,1.1-2.5,2.5s1.1,2.5,2.5,2.5 c1.4,0,2.5-1.1,2.5-2.5S286.4,291,285,291z M276.5,326c-1.4,0-2.5,1.1-2.5,2.5c0,1.4,1.1,2.5,2.5,2.5c1.4,0,2.5-1.1,2.5-2.5 C279,327.1,277.9,326,276.5,326z M276.5,348.5c-1.4,0-2.5,1.1-2.5,2.5c0,1.4,1.1,2.5,2.5,2.5c1.4,0,2.5-1.1,2.5-2.5 C279,349.7,277.9,348.5,276.5,348.5z M194.8,348.5c-1.4,0-2.5,1.1-2.5,2.5c0,1.4,1.1,2.5,2.5,2.5c1.4,0,2.5-1.1,2.5-2.5 C197.4,349.7,196.2,348.5,194.8,348.5z M171,314.3c-0.2,1.7-0.3,3.3-0.3,5c0,0,0,0,0,0c1.4,0,2.5-1.1,2.5-2.5 C173.3,315.5,172.3,314.5,171,314.3z M178.5,302.6c-1.4,0-2.5,1.1-2.5,2.5c0,1.4,1.1,2.5,2.5,2.5c1.4,0,2.5-1.1,2.5-2.5 C181,303.8,179.9,302.6,178.5,302.6z M169.6,45c1.4,0,2.5-1.1,2.5-2.5c0-1.4-1.1-2.5-2.5-2.5c-1.4,0-2.5,1.1-2.5,2.5 C167.1,43.9,168.2,45,169.6,45z M194.8,279.3c-1.4,0-2.5,1.1-2.5,2.5c0,1.4,1.1,2.5,2.5,2.5c1.4,0,2.5-1.1,2.5-2.5 C197.4,280.4,196.2,279.3,194.8,279.3z M194.8,302.6c-1.4,0-2.5,1.1-2.5,2.5c0,1.4,1.1,2.5,2.5,2.5c1.4,0,2.5-1.1,2.5-2.5 C197.4,303.8,196.2,302.6,194.8,302.6z M178.5,326c-1.4,0-2.5,1.1-2.5,2.5c0,1.4,1.1,2.5,2.5,2.5c1.4,0,2.5-1.1,2.5-2.5 C181,327.1,179.9,326,178.5,326z M177.4,33.3c1.4,0,2.5-1.1,2.5-2.5c0-1.4-1.1-2.5-2.5-2.5c-1.4,0-2.5,1.1-2.5,2.5 C174.9,32.2,176,33.3,177.4,33.3z M169.6,112.7c1.4,0,2.5-1.1,2.5-2.5c0-1.4-1.1-2.5-2.5-2.5c-1.4,0-2.5,1.1-2.5,2.5 C167.1,111.5,168.2,112.7,169.6,112.7z M210.1,77.7c1.4,0,2.5-1.1,2.5-2.5s-1.1-2.5-2.5-2.5c-1.4,0-2.5,1.1-2.5,2.5 S208.7,77.7,210.1,77.7z M169.6,66c1.4,0,2.5-1.1,2.5-2.5c0-1.4-1.1-2.5-2.5-2.5c-1.4,0-2.5,1.1-2.5,2.5 C167.1,64.9,168.2,66,169.6,66z M169.6,21.7c1.4,0,2.5-1.1,2.5-2.5c0-1.4-1.1-2.5-2.5-2.5c-1.4,0-2.5,1.1-2.5,2.5 C167.1,20.5,168.2,21.7,169.6,21.7z M169.6,89.3c1.4,0,2.5-1.1,2.5-2.5c0-1.4-1.1-2.5-2.5-2.5c-1.4,0-2.5,1.1-2.5,2.5 C167.1,88.2,168.2,89.3,169.6,89.3z M194.8,326c-1.4,0-2.5,1.1-2.5,2.5c0,1.4,1.1,2.5,2.5,2.5c1.4,0,2.5-1.1,2.5-2.5 C197.4,327.1,196.2,326,194.8,326z M219.7,359.4c-1.4,0-2.5,1.1-2.5,2.5c0,1.4,1.1,2.5,2.5,2.5c1.4,0,2.5-1.1,2.5-2.5 C222.2,360.5,221.1,359.4,219.7,359.4z M219.7,337.6c-1.4,0-2.5,1.1-2.5,2.5c0,1.4,1.1,2.5,2.5,2.5c1.4,0,2.5-1.1,2.5-2.5 C222.2,338.8,221.1,337.6,219.7,337.6z M219.7,314.3c-1.4,0-2.5,1.1-2.5,2.5c0,1.4,1.1,2.5,2.5,2.5c1.4,0,2.5-1.1,2.5-2.5 C222.2,315.4,221.1,314.3,219.7,314.3z M227.5,279.3c-1.4,0-2.5,1.1-2.5,2.5c0,1.4,1.1,2.5,2.5,2.5c1.4,0,2.5-1.1,2.5-2.5 C230,280.4,228.9,279.3,227.5,279.3z M227.5,302.6c-1.4,0-2.5,1.1-2.5,2.5c0,1.4,1.1,2.5,2.5,2.5c1.4,0,2.5-1.1,2.5-2.5 C230,303.8,228.9,302.6,227.5,302.6z M219.7,291c-1.4,0-2.5,1.1-2.5,2.5s1.1,2.5,2.5,2.5c1.4,0,2.5-1.1,2.5-2.5S221.1,291,219.7,291 z M228.9,259c-1.6,0.3-3.1,0.6-4.6,1c0.4,0.7,1.2,1.2,2.1,1.2C227.7,261.2,228.8,260.2,228.9,259z M211.2,279.3 c-1.4,0-2.5,1.1-2.5,2.5c0,1.4,1.1,2.5,2.5,2.5c1.4,0,2.5-1.1,2.5-2.5C213.7,280.4,212.6,279.3,211.2,279.3z M211.2,302.6 c-1.4,0-2.5,1.1-2.5,2.5c0,1.4,1.1,2.5,2.5,2.5c1.4,0,2.5-1.1,2.5-2.5C213.7,303.8,212.6,302.6,211.2,302.6z M219.7,267.6 c-1.4,0-2.5,1.1-2.5,2.5c0,1.4,1.1,2.5,2.5,2.5c1.4,0,2.5-1.1,2.5-2.5C222.2,268.8,221.1,267.6,219.7,267.6z M204.4,267.8 c-1.2,0.7-2.4,1.4-3.5,2.1c0,0.1,0,0.2,0,0.3c0,1.4,1.1,2.5,2.5,2.5c1.4,0,2.5-1.1,2.5-2.5C205.9,269.1,205.3,268.2,204.4,267.8z M211.2,348.5c-1.4,0-2.5,1.1-2.5,2.5c0,1.4,1.1,2.5,2.5,2.5c1.4,0,2.5-1.1,2.5-2.5C213.7,349.7,212.6,348.5,211.2,348.5z M211.2,326c-1.4,0-2.5,1.1-2.5,2.5c0,1.4,1.1,2.5,2.5,2.5c1.4,0,2.5-1.1,2.5-2.5C213.7,327.1,212.6,326,211.2,326z M394.8,227.5 c-1.3,0.6-1.8,2.1-1.2,3.4c0.6,1.3,2.1,1.8,3.4,1.2c1.3-0.6,1.8-2.1,1.2-3.4C397.5,227.5,396,226.9,394.8,227.5z M424.1,213.2 c-1.3,0.6-1.8,2.1-1.2,3.4c0.6,1.3,2.1,1.8,3.4,1.2c1.3-0.6,1.8-2.1,1.2-3.4S425.4,212.6,424.1,213.2z M406.5,157.8 c-1.3,0.6-1.8,2.1-1.2,3.4c0.6,1.3,2.1,1.8,3.4,1.2c1.3-0.6,1.8-2.1,1.2-3.4C409.3,157.7,407.8,157.1,406.5,157.8z M414.2,193 c-1.3,0.6-1.8,2.1-1.2,3.4c0.6,1.3,2.1,1.8,3.4,1.2c1.3-0.6,1.8-2.1,1.2-3.4C417,192.9,415.5,192.3,414.2,193z M381.6,144 c-1.3,0.6-1.8,2.1-1.2,3.4c0.6,1.3,2.1,1.8,3.4,1.2c1.3-0.6,1.8-2.1,1.2-3.4C384.4,143.9,382.9,143.3,381.6,144z M427,199.7 c-1.3,0.6-1.8,2.1-1.2,3.4c0.6,1.3,2.1,1.8,3.4,1.2c1.3-0.6,1.8-2.1,1.2-3.4C429.8,199.6,428.3,199.1,427,199.7z M340.8,228.8 c-1.3,0.6-1.8,2.1-1.2,3.4c0.6,1.3,2.1,1.8,3.4,1.2c1.3-0.6,1.8-2.1,1.2-3.4C343.6,228.7,342.1,228.2,340.8,228.8z M416.8,178.7 c-1.3,0.6-1.8,2.1-1.2,3.4c0.6,1.3,2.1,1.8,3.4,1.2c1.3-0.6,1.8-2.1,1.2-3.4C419.6,178.6,418,178.1,416.8,178.7z M408.4,143.9 c-1.3,0.6-1.8,2.1-1.2,3.4c0.6,1.3,2.1,1.8,3.4,1.2c1.3-0.6,1.8-2.1,1.2-3.4C411.2,143.8,409.7,143.2,408.4,143.9z M412.3,206.8 c-1.3,0.6-1.8,2.1-1.2,3.4c0.6,1.3,2.1,1.8,3.4,1.2c1.3-0.6,1.8-2.1,1.2-3.4C415.1,206.8,413.6,206.2,412.3,206.8z M391.9,164.9 c-1.3,0.6-1.8,2.1-1.2,3.4c0.6,1.3,2.1,1.8,3.4,1.2c1.3-0.6,1.8-2.1,1.2-3.4C394.6,164.8,393.1,164.3,391.9,164.9z M402.1,185.9 c-1.3,0.6-1.8,2.1-1.2,3.4c0.6,1.3,2.1,1.8,3.4,1.2c1.3-0.6,1.8-2.1,1.2-3.4C404.9,185.8,403.4,185.3,402.1,185.9z M393.7,151 c-1.3,0.6-1.8,2.1-1.2,3.4c0.6,1.3,2.1,1.8,3.4,1.2c1.3-0.6,1.8-2.1,1.2-3.4C396.5,150.9,395,150.4,393.7,151z M383.8,130.8 c-1.3,0.6-1.8,2.1-1.2,3.4c0.6,1.3,2.1,1.8,3.4,1.2c1.3-0.6,1.8-2.1,1.2-3.4C386.6,130.7,385.1,130.1,383.8,130.8z M404,172 c-1.3,0.6-1.8,2.1-1.2,3.4c0.6,1.3,2.1,1.8,3.4,1.2c1.3-0.6,1.8-2.1,1.2-3.4C406.8,171.9,405.2,171.4,404,172z M396.3,136.8 c-1.3,0.6-1.8,2.1-1.2,3.4c0.6,1.3,2.1,1.8,3.4,1.2c1.3-0.6,1.8-2.1,1.2-3.4S397.6,136.2,396.3,136.8z M318.5,200.7 c-1.3,0.6-1.8,2.1-1.2,3.4c0.6,1.3,2.1,1.8,3.4,1.2c1.3-0.6,1.8-2.1,1.2-3.4C321.3,200.6,319.8,200.1,318.5,200.7z M308.3,179.8 c-1.3,0.6-1.8,2.1-1.2,3.4c0.6,1.3,2.1,1.8,3.4,1.2c1.3-0.6,1.8-2.1,1.2-3.4C311,179.7,309.5,179.2,308.3,179.8z M309.1,195.2 c-0.3-0.6-0.8-1-1.4-1.2c0.4,1.2,0.8,2.4,1.3,3.6C309.4,196.8,309.5,195.9,309.1,195.2z M418.7,164.8c-1.3,0.6-1.8,2.1-1.2,3.4 c0.6,1.3,2.1,1.8,3.4,1.2c1.3-0.6,1.8-2.1,1.2-3.4C421.4,164.7,419.9,164.2,418.7,164.8z M320.4,186.8c-1.3,0.6-1.8,2.1-1.2,3.4 c0.6,1.3,2.1,1.8,3.4,1.2c1.3-0.6,1.8-2.1,1.2-3.4C323.1,186.8,321.6,186.2,320.4,186.8z M310,302.6c-1.4,0-2.5,1.1-2.5,2.5 c0,1.4,1.1,2.5,2.5,2.5c1.4,0,2.5-1.1,2.5-2.5C312.6,303.8,311.4,302.6,310,302.6z M310.5,166.6c-1.3,0.6-1.8,2.1-1.2,3.4 s2.1,1.8,3.4,1.2c1.3-0.6,1.8-2.1,1.2-3.4C313.2,166.5,311.7,166,310.5,166.6z M310,326c-1.4,0-2.5,1.1-2.5,2.5 c0,1.4,1.1,2.5,2.5,2.5c0.3,0,0.6-0.1,0.9-0.2c0.4-1.3,0.8-2.5,1.1-3.8C311.6,326.4,310.9,326,310,326z M328.7,221.7 c-1.3,0.6-1.8,2.1-1.2,3.4c0,0.1,0.1,0.1,0.1,0.2c0.3,0.3,0.7,0.6,1,1c0.7,0.3,1.5,0.4,2.3,0c1.3-0.6,1.8-2.1,1.2-3.4 C331.5,221.6,330,221.1,328.7,221.7z M378.2,248.6c-0.1,0.1-0.2,0.1-0.3,0.2c1,0.1,2.1,0.1,3.1,0.2 C380.3,248.3,379.2,248.1,378.2,248.6z M302.2,314.3c-1.4,0-2.5,1.1-2.5,2.5c0,1.4,1.1,2.5,2.5,2.5c1.4,0,2.5-1.1,2.5-2.5 C304.8,315.4,303.6,314.3,302.2,314.3z M302.2,337.6c-1.4,0-2.5,1.1-2.5,2.5c0,1.4,1.1,2.5,2.5,2.5c1.4,0,2.5-1.1,2.5-2.5 C304.8,338.8,303.6,337.6,302.2,337.6z M302.2,291c-1.4,0-2.5,1.1-2.5,2.5s1.1,2.5,2.5,2.5c1.4,0,2.5-1.1,2.5-2.5 S303.6,291,302.2,291z M428.9,185.8c-1.3,0.6-1.8,2.1-1.2,3.4c0.6,1.3,2.1,1.8,3.4,1.2c1.3-0.6,1.8-2.1,1.2-3.4 C431.7,185.7,430.1,185.2,428.9,185.8z M352.3,158.3c-1.3,0.6-1.8,2.1-1.2,3.4c0.6,1.3,2.1,1.8,3.4,1.2c1.3-0.6,1.8-2.1,1.2-3.4 C355.1,158.2,353.5,157.7,352.3,158.3z M362.5,179.2c-1.3,0.6-1.8,2.1-1.2,3.4c0.6,1.3,2.1,1.8,3.4,1.2c1.3-0.6,1.8-2.1,1.2-3.4 C365.3,179.2,363.8,178.6,362.5,179.2z M372.8,200.2c-1.3,0.6-1.8,2.1-1.2,3.4c0.6,1.3,2.1,1.8,3.4,1.2c1.3-0.6,1.8-2.1,1.2-3.4 C375.5,200.1,374,199.6,372.8,200.2z M383,221.2c-1.3,0.6-1.8,2.1-1.2,3.4c0.6,1.3,2.1,1.8,3.4,1.2c1.3-0.6,1.8-2.1,1.2-3.4 C385.8,221.1,384.3,220.6,383,221.2z M364.4,165.4c-1.3,0.6-1.8,2.1-1.2,3.4c0.6,1.3,2.1,1.8,3.4,1.2c1.3-0.6,1.8-2.1,1.2-3.4 C367.2,165.3,365.6,164.7,364.4,165.4z M344.6,124.8c-1.3,0.6-1.8,2.1-1.2,3.4c0.6,1.3,2.1,1.8,3.4,1.2c1.3-0.6,1.8-2.1,1.2-3.4 S345.9,124.2,344.6,124.8z M354.5,145.1c-1.3,0.6-1.8,2.1-1.2,3.4c0.6,1.3,2.1,1.8,3.4,1.2c1.3-0.6,1.8-2.1,1.2-3.4 C357.3,145,355.8,144.5,354.5,145.1z M422.2,227.1c-1.3,0.6-1.8,2.1-1.2,3.4c0.6,1.3,2.1,1.8,3.4,1.2c0.3-0.1,0.5-0.3,0.7-0.6 c0,0,0.1-0.1,0.1-0.1c0.6-0.7,0.8-1.8,0.3-2.7C425,227,423.5,226.5,422.2,227.1z M431.5,171.6c-1.3,0.6-1.8,2.1-1.2,3.4 c0.6,1.3,2.1,1.8,3.4,1.2c0.4-0.2,0.6-0.4,0.9-0.7c-0.4-1.4-0.9-2.7-1.5-4C432.6,171.2,432,171.3,431.5,171.6z M423.4,155.1 c0.2-0.1,0.4-0.3,0.6-0.4c-1-1.4-2-2.7-3-4c-1.1,0.7-1.5,2.1-0.9,3.3C420.7,155.2,422.2,155.8,423.4,155.1z M392.9,241.4 c-1.3,0.6-1.8,2.1-1.2,3.4c0.6,1.3,2.1,1.8,3.4,1.2c1.3-0.6,1.8-2.1,1.2-3.4C395.7,241.3,394.1,240.8,392.9,241.4z M407.6,234.3 c-1.3,0.6-1.8,2.1-1.2,3.4c0.6,1.3,2.1,1.8,3.4,1.2c1.3-0.6,1.8-2.1,1.2-3.4C410.3,234.2,408.8,233.7,407.6,234.3z M342.7,138.7 c-1.3,0.6-1.8,2.1-1.2,3.4c0.6,1.3,2.1,1.8,3.4,1.2c1.3-0.6,1.8-2.1,1.2-3.4C345.5,138.6,344,138.1,342.7,138.7z M409.4,220.4 c-1.3,0.6-1.8,2.1-1.2,3.4c0.6,1.3,2.1,1.8,3.4,1.2c1.3-0.6,1.8-2.1,1.2-3.4C412.2,220.3,410.7,219.8,409.4,220.4z M379.1,158.2 c-1.3,0.6-1.8,2.1-1.2,3.4c0.6,1.3,2.1,1.8,3.4,1.2c1.3-0.6,1.8-2.1,1.2-3.4C381.8,158.1,380.3,157.6,379.1,158.2z M369.2,137.9 c-1.3,0.6-1.8,2.1-1.2,3.4s2.1,1.8,3.4,1.2c1.3-0.6,1.8-2.1,1.2-3.4S370.4,137.3,369.2,137.9z M389.3,179.2 c-1.3,0.6-1.8,2.1-1.2,3.4s2.1,1.8,3.4,1.2c1.3-0.6,1.8-2.1,1.2-3.4C392.1,179.1,390.6,178.5,389.3,179.2z M372.1,124.4 c-1.3,0.6-1.8,2.1-1.2,3.4c0.6,1.3,2.1,1.8,3.4,1.2c1.3-0.6,1.8-2.1,1.2-3.4S373.3,123.8,372.1,124.4z M399.5,200.1 c-1.3,0.6-1.8,2.1-1.2,3.4c0.6,1.3,2.1,1.8,3.4,1.2c1.3-0.6,1.8-2.1,1.2-3.4C402.3,200,400.8,199.5,399.5,200.1z M361.5,122.2 c1-0.5,1.5-1.5,1.4-2.4c-1.7-0.1-3.4-0.1-5-0.1c-0.1,0.5,0,0.9,0.2,1.4C358.7,122.3,360.2,122.8,361.5,122.2z M374.6,186.3 c-1.3,0.6-1.8,2.1-1.2,3.4c0.6,1.3,2.1,1.8,3.4,1.2c1.3-0.6,1.8-2.1,1.2-3.4C377.4,186.2,375.9,185.7,374.6,186.3z M387.4,193 c-1.3,0.6-1.8,2.1-1.2,3.4c0.6,1.3,2.1,1.8,3.4,1.2c1.3-0.6,1.8-2.1,1.2-3.4C390.2,193,388.7,192.4,387.4,193z M357.4,131.6 c-1.3,0.6-1.8,2.1-1.2,3.4c0.6,1.3,2.1,1.8,3.4,1.2c1.3-0.6,1.8-2.1,1.2-3.4C360.2,131.5,358.7,130.9,357.4,131.6z M384.9,207.3 c-1.3,0.6-1.8,2.1-1.2,3.4c0.6,1.3,2.1,1.8,3.4,1.2c1.3-0.6,1.8-2.1,1.2-3.4C387.6,207.2,386.1,206.7,384.9,207.3z M367,151.1 c-1.3,0.6-1.8,2.1-1.2,3.4c0.6,1.3,2.1,1.8,3.4,1.2c1.3-0.6,1.8-2.1,1.2-3.4C369.7,151,368.2,150.5,367,151.1z M377.2,172.1 c-1.3,0.6-1.8,2.1-1.2,3.4c0.6,1.3,2.1,1.8,3.4,1.2c1.3-0.6,1.8-2.1,1.2-3.4C380,172,378.5,171.5,377.2,172.1z M397.7,214 c-1.3,0.6-1.8,2.1-1.2,3.4c0.6,1.3,2.1,1.8,3.4,1.2c1.3-0.6,1.8-2.1,1.2-3.4C400.4,213.9,398.9,213.4,397.7,214z M330.6,207.8 c-1.3,0.6-1.8,2.1-1.2,3.4c0.6,1.3,2.1,1.8,3.4,1.2c1.3-0.6,1.8-2.1,1.2-3.4C333.4,207.7,331.9,207.2,330.6,207.8z M144.8,50.8 c-1.4,0-2.5,1.1-2.5,2.5s1.1,2.5,2.5,2.5c1.4,0,2.5-1.1,2.5-2.5S146.2,50.8,144.8,50.8z M144.8,72.6c-1.4,0-2.5,1.1-2.5,2.5 s1.1,2.5,2.5,2.5c1.4,0,2.5-1.1,2.5-2.5S146.2,72.6,144.8,72.6z M144.8,95.9c-1.1,0-2,0.7-2.3,1.6c0.3,1.1,0.7,2.1,1.1,3.1 c0.4,0.2,0.8,0.3,1.3,0.3c1.4,0,2.5-1.1,2.5-2.5C147.3,97.1,146.2,95.9,144.8,95.9z M138.6,65.4c0.5-0.5,0.9-1.1,0.9-1.9 c0-0.6-0.2-1.2-0.6-1.6C138.8,63,138.7,64.2,138.6,65.4z M153.3,107.6c-1.4,0-2.5,1.1-2.5,2.5c0,1.4,1.1,2.5,2.5,2.5 c1.4,0,2.5-1.1,2.5-2.5C155.9,108.7,154.7,107.6,153.3,107.6z M153.3,84.3c-1.4,0-2.5,1.1-2.5,2.5c0,1.4,1.1,2.5,2.5,2.5 c1.4,0,2.5-1.1,2.5-2.5C155.9,85.4,154.7,84.3,153.3,84.3z M153.3,39.9c-1.4,0-2.5,1.1-2.5,2.5c0,1.4,1.1,2.5,2.5,2.5 c1.4,0,2.5-1.1,2.5-2.5C155.9,41.1,154.7,39.9,153.3,39.9z M252.4,337.6c-1.4,0-2.5,1.1-2.5,2.5c0,1.4,1.1,2.5,2.5,2.5 c1.4,0,2.5-1.1,2.5-2.5C254.9,338.8,253.8,337.6,252.4,337.6z M261.6,259c-1.6-0.3-3.3-0.6-5-0.8c0,0.2,0,0.3,0,0.5 c0,1.4,1.1,2.5,2.5,2.5C260.4,261.2,261.4,260.3,261.6,259z M243.8,279.3c-1.4,0-2.5,1.1-2.5,2.5c0,1.4,1.1,2.5,2.5,2.5 c1.4,0,2.5-1.1,2.5-2.5C246.4,280.4,245.2,279.3,243.8,279.3z M252.4,314.3c-1.4,0-2.5,1.1-2.5,2.5c0,1.4,1.1,2.5,2.5,2.5 c1.4,0,2.5-1.1,2.5-2.5C254.9,315.4,253.8,314.3,252.4,314.3z M210.1,55.9c1.4,0,2.5-1.1,2.5-2.5s-1.1-2.5-2.5-2.5 c-1.4,0-2.5,1.1-2.5,2.5S208.7,55.9,210.1,55.9z M211.2,371.1c-0.5,0-0.9,0.1-1.2,0.3c1.2,0.5,2.4,0.9,3.6,1.3 C213.2,371.7,212.2,371.1,211.2,371.1z M227.5,371.1c-1.4,0-2.5,1.1-2.5,2.5c0,0.9,0.5,1.7,1.2,2.1c0.7,0.1,1.4,0.2,2,0.3 c1.1-0.3,1.9-1.3,1.9-2.4C230,372.2,228.9,371.1,227.5,371.1z M153.3,60.9c-1.4,0-2.5,1.1-2.5,2.5c0,1.4,1.1,2.5,2.5,2.5 c1.4,0,2.5-1.1,2.5-2.5C155.9,62.1,154.7,60.9,153.3,60.9z M202.3,112.7c1.4,0,2.5-1.1,2.5-2.5c0-1.4-1.1-2.5-2.5-2.5 s-2.5,1.1-2.5,2.5C199.8,111.5,200.9,112.7,202.3,112.7z M202.3,45c1.4,0,2.5-1.1,2.5-2.5c0-1.4-1.1-2.5-2.5-2.5s-2.5,1.1-2.5,2.5 C199.8,43.9,200.9,45,202.3,45z M202.3,89.3c1.4,0,2.5-1.1,2.5-2.5c0-1.4-1.1-2.5-2.5-2.5s-2.5,1.1-2.5,2.5 C199.8,88.2,200.9,89.3,202.3,89.3z M202.3,66c1.4,0,2.5-1.1,2.5-2.5c0-1.4-1.1-2.5-2.5-2.5s-2.5,1.1-2.5,2.5 C199.8,64.9,200.9,66,202.3,66z M210.1,10c1.4,0,2.5-1.1,2.5-2.5S211.5,5,210.1,5c-1.4,0-2.5,1.1-2.5,2.5S208.7,10,210.1,10z M210.1,33.3c1.4,0,2.5-1.1,2.5-2.5c0-1.4-1.1-2.5-2.5-2.5c-1.4,0-2.5,1.1-2.5,2.5C207.6,32.2,208.7,33.3,210.1,33.3z M161.1,50.8 c-1.4,0-2.5,1.1-2.5,2.5s1.1,2.5,2.5,2.5c1.4,0,2.5-1.1,2.5-2.5S162.5,50.8,161.1,50.8z M161.1,72.6c-1.4,0-2.5,1.1-2.5,2.5 s1.1,2.5,2.5,2.5c1.4,0,2.5-1.1,2.5-2.5S162.5,72.6,161.1,72.6z M161.1,119.3c-1.4,0-2.5,1.1-2.5,2.5c0,1.4,1.1,2.5,2.5,2.5 c1.4,0,2.5-1.1,2.5-2.5C163.6,120.4,162.5,119.3,161.1,119.3z M161.1,28.3c-1.4,0-2.5,1.1-2.5,2.5c0,1.4,1.1,2.5,2.5,2.5 c1.4,0,2.5-1.1,2.5-2.5C163.6,29.4,162.5,28.3,161.1,28.3z M161.1,95.9c-1.4,0-2.5,1.1-2.5,2.5c0,1.4,1.1,2.5,2.5,2.5 c1.4,0,2.5-1.1,2.5-2.5C163.6,97.1,162.5,95.9,161.1,95.9z M204.8,133.5c0-1.4-1.1-2.5-2.5-2.5s-2.5,1.1-2.5,2.5 c0,1.4,1.1,2.5,2.5,2.5S204.8,134.9,204.8,133.5z M202.3,21.7c1.4,0,2.5-1.1,2.5-2.5c0-1.4-1.1-2.5-2.5-2.5s-2.5,1.1-2.5,2.5 C199.8,20.5,200.9,21.7,202.3,21.7z M172.2,133.5c0-1.4-1.1-2.5-2.5-2.5c-1.2,0-2.2,0.9-2.5,2c1.3,0.9,2.6,1.8,3.9,2.6 C171.8,135.1,172.2,134.3,172.2,133.5z M365.4,241.9c-1.3,0.6-1.8,2.1-1.2,3.4s2.1,1.8,3.4,1.2c1.3-0.6,1.8-2.1,1.2-3.4 S366.7,241.3,365.4,241.9z M252.4,291c-1.4,0-2.5,1.1-2.5,2.5s1.1,2.5,2.5,2.5c1.4,0,2.5-1.1,2.5-2.5S253.8,291,252.4,291z M335,179.7c-1.3,0.6-1.8,2.1-1.2,3.4c0.6,1.3,2.1,1.8,3.4,1.2c1.3-0.6,1.8-2.1,1.2-3.4C337.8,179.6,336.3,179.1,335,179.7z M345.3,200.6c-1.3,0.6-1.8,2.1-1.2,3.4c0.6,1.3,2.1,1.8,3.4,1.2c1.3-0.6,1.8-2.1,1.2-3.4C348.1,200.6,346.5,200,345.3,200.6z M328.1,145.9c-1.3,0.6-1.8,2.1-1.2,3.4c0.6,1.3,2.1,1.8,3.4,1.2c1.3-0.6,1.8-2.1,1.2-3.4C330.8,145.8,329.3,145.3,328.1,145.9z M315.6,139c-0.6,0.7-1.2,1.5-1.7,2.3c0,0.4,0,0.8,0.2,1.2c0.6,1.3,2.1,1.8,3.4,1.2c1.3-0.6,1.8-2.1,1.2-3.4 C318.1,139.2,316.8,138.6,315.6,139z M343.4,214.5c-1.3,0.6-1.8,2.1-1.2,3.4c0.6,1.3,2.1,1.8,3.4,1.2c1.3-0.6,1.8-2.1,1.2-3.4 S344.7,213.9,343.4,214.5z M325.1,159.4c-1.3,0.6-1.8,2.1-1.2,3.4c0.6,1.3,2.1,1.8,3.4,1.2c1.3-0.6,1.8-2.1,1.2-3.4 C327.9,159.3,326.4,158.8,325.1,159.4z M313.4,153c-1.3,0.6-1.8,2.1-1.2,3.4s2.1,1.8,3.4,1.2c1.3-0.6,1.8-2.1,1.2-3.4 C316.2,153,314.6,152.4,313.4,153z M333.2,193.6c-1.3,0.6-1.8,2.1-1.2,3.4c0.6,1.3,2.1,1.8,3.4,1.2c1.3-0.6,1.8-2.1,1.2-3.4 C335.9,193.5,334.4,193,333.2,193.6z M322.9,172.6c-1.3,0.6-1.8,2.1-1.2,3.4c0.6,1.3,2.1,1.8,3.4,1.2c1.3-0.6,1.8-2.1,1.2-3.4 C325.7,172.5,324.2,172,322.9,172.6z M353.6,235.5c-1.3,0.6-1.8,2.1-1.2,3.4c0.6,1.3,2.1,1.8,3.4,1.2c1.3-0.6,1.8-2.1,1.2-3.4 C356.4,235.4,354.9,234.9,353.6,235.5z M337.6,165.4c-1.3,0.6-1.8,2.1-1.2,3.4s2.1,1.8,3.4,1.2c1.3-0.6,1.8-2.1,1.2-3.4 S338.9,164.8,337.6,165.4z M355.5,221.6c-1.3,0.6-1.8,2.1-1.2,3.4c0.6,1.3,2.1,1.8,3.4,1.2c1.3-0.6,1.8-2.1,1.2-3.4 C358.3,221.5,356.8,221,355.5,221.6z M380.1,234.7c-1.3,0.6-1.8,2.1-1.2,3.4c0.6,1.3,2.1,1.8,3.4,1.2c1.3-0.6,1.8-2.1,1.2-3.4 C382.9,234.6,381.3,234.1,380.1,234.7z M285,359.4c-1.4,0-2.5,1.1-2.5,2.5c0,0.9,0.5,1.7,1.2,2.2c1.3-0.8,2.6-1.7,3.8-2.6 C287.3,360.3,286.3,359.4,285,359.4z M370.2,214.4c-1.3,0.6-1.8,2.1-1.2,3.4c0.6,1.3,2.1,1.8,3.4,1.2c1.3-0.6,1.8-2.1,1.2-3.4 S371.4,213.8,370.2,214.4z M260.2,371.1c-1.4,0-2.5,1.1-2.5,2.5c0,0.4,0.1,0.7,0.2,1.1c1.6-0.4,3.2-0.8,4.8-1.2 C262.6,372.1,261.5,371.1,260.2,371.1z M252.4,359.4c-1.4,0-2.5,1.1-2.5,2.5c0,1.4,1.1,2.5,2.5,2.5c1.4,0,2.5-1.1,2.5-2.5 C254.9,360.5,253.8,359.4,252.4,359.4z M252.4,267.6c-1.4,0-2.5,1.1-2.5,2.5c0,1.4,1.1,2.5,2.5,2.5c1.4,0,2.5-1.1,2.5-2.5 C254.9,268.8,253.8,267.6,252.4,267.6z M349.7,172.5c-1.3,0.6-1.8,2.1-1.2,3.4c0.6,1.3,2.1,1.8,3.4,1.2c1.3-0.6,1.8-2.1,1.2-3.4 C352.5,172.4,351,171.9,349.7,172.5z M329.9,132c-1.3,0.6-1.8,2.1-1.2,3.4c0.6,1.3,2.1,1.8,3.4,1.2c1.3-0.6,1.8-2.1,1.2-3.4 C332.7,131.9,331.2,131.4,329.9,132z M358.1,207.4c-1.3,0.6-1.8,2.1-1.2,3.4c0.6,1.3,2.1,1.8,3.4,1.2c1.3-0.6,1.8-2.1,1.2-3.4 C360.9,207.3,359.3,206.8,358.1,207.4z M368.3,228.3c-1.3,0.6-1.8,2.1-1.2,3.4c0.6,1.3,2.1,1.8,3.4,1.2c1.3-0.6,1.8-2.1,1.2-3.4 C371.1,228.2,369.6,227.7,368.3,228.3z M360,193.5c-1.3,0.6-1.8,2.1-1.2,3.4c0.6,1.3,2.1,1.8,3.4,1.2c1.3-0.6,1.8-2.1,1.2-3.4 C362.7,193.4,361.2,192.9,360,193.5z M347.8,186.4c-1.3,0.6-1.8,2.1-1.2,3.4c0.6,1.3,2.1,1.8,3.4,1.2c1.3-0.6,1.8-2.1,1.2-3.4 C350.6,186.3,349.1,185.8,347.8,186.4z M339.8,152.3c-1.3,0.6-1.8,2.1-1.2,3.4c0.6,1.3,2.1,1.8,3.4,1.2c1.3-0.6,1.8-2.1,1.2-3.4 C342.6,152.2,341.1,151.6,339.8,152.3z" fill="#051E02" opacity=".1"/></g><g id="change3_1"><path d="M428.8,448.4C428.8,448.4,428.8,448.4,428.8,448.4c-23.4,41.2-75.3,57-117.9,35.2 c-16.1-8.2-28.6-20.7-36.9-35.4c-2.2-3.9-7.8-4.3-10.5-0.7c-25.5,34.1-72.6,45.8-111.7,25.8c-0.4-0.2-0.8-0.4-1.1-0.7 c-0.4-0.2-0.8-0.3-1.2-0.5c-39.1-20.1-57.1-65.1-44.3-105.7c1.4-4.3-2.2-8.6-6.6-8.1c-16.7,1.9-34.2-1-50.2-9.3 c-42.6-21.8-60-73.2-40.3-116.2c0,0,0,0,0,0c8-19.6,20.7-36.6,30.2-47.8c6.9-8,10.8-18.1,11.7-28.6c0.5-6.4,3-12.2,10.6-11 c8,1.2,8.9,8.4,7.8,15.2c-1.8,11-0.3,22.3,4.7,32.3c31.5,63,71.4,105.8,114.4,134.3c0.5,0.3,1,0.7,1.6,1c0.4,0.3,0.9,0.6,1.3,0.8 c0.9,0.6,1.8,1.2,2.8,1.8c0,0,0.1,0,0.1,0.1c5.7,3.6,11.6,7,17.7,10.3c0,0,0,0,0.1,0c0.3,0.2,0.6,0.3,1,0.5c0,0,0,0,0.1,0 c0,0,0,0,0.1,0c1.1,0.6,2.3,1.2,3.4,1.8c0.4,0.2,0.8,0.4,1.2,0.6c0.4,0.2,0.8,0.4,1.2,0.6c1.1,0.6,2.3,1.2,3.5,1.7c0,0,0,0,0.1,0 c0,0,0,0,0,0c0.3,0.2,0.7,0.3,1,0.5c0,0,0,0,0.1,0c6.2,3,12.4,5.8,18.7,8.3c0,0,0.1,0,0.1,0c1,0.4,2,0.8,3.1,1.2 c0.5,0.2,1,0.4,1.4,0.6c0.6,0.2,1.2,0.4,1.8,0.7c48.2,18.2,106.2,25.6,175.8,14.4c11-1.8,21-7.2,28.9-15.1 c4.9-4.9,11.2-8.4,16.9-2.6c5.4,5.5,2.2,10.9-2.7,15.1c-8,6.9-13.9,15.9-16.4,26.2C446.5,410.2,440,430.4,428.8,448.4z" fill="#43A53C"/></g><g id="change1_2"><path d="M217.8,344.8c0.6,0.3,1.2,0.6,1.9,0.9v133c-1.1,0.4-2.2,0.7-3.4,1V344.1 c0.1,0.1,0.2,0.1,0.3,0.2C217,344.4,217.4,344.6,217.8,344.8z M241.2,355.5c0,0-0.1,0-0.1,0c0,0-0.1,0-0.1-0.1v113.3 c1.1-0.7,2.3-1.5,3.4-2.3V356.8c0,0-0.1,0-0.1,0C243.3,356.3,242.2,355.9,241.2,355.5z M193,330.8c-0.5-0.3-1-0.6-1.4-0.9v153.1 c1.1,0,2.2,0,3.4,0V332C194.4,331.6,193.7,331.3,193,330.8C193.1,330.9,193.1,330.9,193,330.8z M339.8,492.6 c1.1,0.1,2.2,0.3,3.4,0.4V377.3c-1.1-0.1-2.2-0.1-3.4-0.2V492.6z M290.4,469c1.1,1,2.2,2,3.4,3V371.2c-1.1-0.2-2.3-0.5-3.4-0.7V469z M327.4,490c1.1,0.3,2.2,0.6,3.4,0.9V376.5c-1.1-0.1-2.3-0.2-3.4-0.3V490z M315.1,485.5c1.1,0.5,2.2,1,3.4,1.4V375.2 c-1.1-0.1-2.2-0.3-3.4-0.4V485.5z M228.6,475.4c1.1-0.5,2.3-1,3.4-1.6V351.6c-1.1-0.5-2.2-1-3.4-1.5V475.4z M302.7,478.7 c1.1,0.7,2.2,1.4,3.4,2.1V373.5c-1.1-0.2-2.2-0.4-3.4-0.6V478.7z M203.9,482.3c1.1-0.1,2.2-0.3,3.4-0.5V339.3 c-1.1-0.6-2.3-1.3-3.4-1.9V482.3z M179.3,482.1c1.1,0.2,2.2,0.3,3.4,0.4V323.9c-1.1-0.8-2.2-1.6-3.4-2.4V482.1z M68.1,356.3 c1.1,0.3,2.2,0.5,3.4,0.7V189.5c-1.7-4.1-2.8-8.3-3.4-12.6V356.3z M68.1,151.6v10.7c0.1-0.6,0.1-1.1,0.2-1.7 C68.9,157.5,69,154.2,68.1,151.6z M463.2,351.7v21c1-1,2.1-2,3.2-3c0.1-0.1,0.1-0.1,0.2-0.2v-16.9 C465.5,352.1,464.3,351.8,463.2,351.7z M426.2,452.7c0.9-1.4,1.8-2.9,2.7-4.4c0.2-0.4,0.5-0.8,0.7-1.2v-76.3 c-1.1,0.3-2.2,0.6-3.4,0.9V452.7z M154.6,474.5c1.1,0.5,2.2,1,3.4,1.5V304.8c-1.1-1-2.2-1.9-3.4-2.9V474.5z M166.9,479.3 c1.1,0.3,2.2,0.6,3.4,0.9V314.9c-1.1-0.9-2.2-1.7-3.4-2.6V479.3z M105.2,362.3c0.4,1.2,0.5,2.6,0.1,4c0,0.1-0.1,0.2-0.1,0.3v52.5 c1,3.1,2.1,6.1,3.4,9.1v-177c-1.1-1.5-2.3-3.1-3.4-4.6V362.3z M117.5,444.3c1.1,1.5,2.2,3,3.4,4.5V267c-1.1-1.4-2.2-2.7-3.4-4.1 V444.3z M265.7,445.8c1-0.6,2.2-0.8,3.4-0.8v-79.9c-1.1-0.3-2.3-0.7-3.4-1V445.8z M80.5,358.4c1.1,0.1,2.2,0.2,3.4,0.3V213.1 c-1.1-2-2.3-4-3.4-6V358.4z M142.2,467.8c1.1,0.7,2.2,1.4,3.4,2V293.6c-1.1-1.1-2.2-2.2-3.4-3.3V467.8z M55.8,352.3 c1.1,0.5,2.2,0.9,3.4,1.3V145.2c-1.3,0-2.4,0.1-3.4,0.5V352.3z M129.9,458.3c1.1,1,2.2,2,3.4,2.9V281.1c-1.1-1.2-2.2-2.4-3.4-3.7 V458.3z M92.8,358.7c1.1-0.1,2.2-0.1,3.4-0.2v-125c-1.1-1.7-2.3-3.5-3.4-5.3V358.7z M43.5,346.2c1.1,0.7,2.2,1.3,3.4,1.9V170.5 c-0.9,2.5-2.1,4.9-3.4,7.2V346.2z M31.1,337.4c1.1,0.9,2.2,1.8,3.4,2.7V189.6c-1.1,1.4-2.2,2.8-3.4,4.3V337.4z M8.1,232.7 c-0.6,1.3-1.2,2.6-1.7,3.9V303c1,2.5,2.1,5,3.4,7.4v-81.5C9.2,230.1,8.7,231.4,8.1,232.7C8.1,232.7,8.1,232.7,8.1,232.7z M18.8,324.5c1.1,1.4,2.2,2.7,3.4,4v-122c-1.1,1.7-2.3,3.5-3.4,5.3V324.5z M389.1,485c1.1-0.5,2.3-1.1,3.4-1.6V376.2 c-1.1,0.1-2.2,0.2-3.4,0.3V485z M352.1,493.3c1.1,0,2.2,0,3.4-0.1V377.6c-1.1,0-2.2,0-3.4-0.1V493.3z M364.4,492.4 c1.1-0.2,2.2-0.4,3.4-0.6V377.6c-1.1,0-2.2,0-3.4,0.1V492.4z M401.5,478c1.1-0.8,2.3-1.6,3.4-2.4V374.9c-1.1,0.1-2.2,0.3-3.4,0.4 V478z M376.8,489.7c1.1-0.3,2.3-0.7,3.4-1.1V377.1c-1.1,0.1-2.2,0.1-3.4,0.2V489.7z M278,454.4c1.1,1.6,2.2,3.1,3.4,4.6v-90.6 c-1.1-0.3-2.2-0.6-3.4-0.9V454.4z M413.8,467.9c1.2-1.1,2.3-2.3,3.4-3.5v-91.1c-1.1,0.2-2.2,0.3-3.4,0.5V467.9z M253.3,459 c1.2-1.1,2.3-2.2,3.4-3.3v-94.4c-1.1-0.4-2.2-0.8-3.4-1.2V459z M450.9,358.6v34.2c0.9-2.8,2-5.4,3.4-8v-29.4c-0.7,0.6-1.4,1.2-2,1.9 C451.8,357.8,451.3,358.2,450.9,358.6z M438.5,429.9c1.2-2.7,2.3-5.4,3.4-8.1v-56.4c-1.1,0.7-2.2,1.3-3.4,1.9V429.9z" fill="#5AC152" opacity=".5"/></g></svg>