<?xml version="1.0" encoding="UTF-8"?><svg xmlns="http://www.w3.org/2000/svg" xmlns:xlink="http://www.w3.org/1999/xlink" height="188.0" preserveAspectRatio="xMidYMid meet" version="1.1" viewBox="106.0 124.3 218.0 188.0" width="218.0" zoomAndPan="magnify">
 <g id="surface1">
  <g id="change1_1"><path d="m1962.5 2992.1s167.3-232.5 53-579c0 0 96.7-75.5 173.2-37 76.5 38.6-155 247.1-4.7 570.9" fill="#b1b7bc" stroke="#24578f" stroke-linecap="round" stroke-linejoin="round" stroke-miterlimit="10" stroke-width="30" transform="matrix(.1 0 0 -.1 0 425.2)"/></g>
  <g id="change2_1"><path d="m305.7 197.86c-49.75 49.75-89 82.68-116.84 38.05-18.2-29.18-5.43-71.35 49.77-54.89 22.3 6.65 85.35-1.44 67.07 16.84" fill="#d15550"/></g>
  <path d="m3057 2273.4c-497.5-497.5-890-826.8-1168.4-380.5-182 291.8-54.3 713.5 497.7 548.9 223-66.5 853.5 14.4 670.7-168.4zm0 0" fill="none" stroke="#24578f" stroke-linecap="round" stroke-linejoin="round" stroke-miterlimit="10" stroke-width="30" transform="matrix(.1 0 0 -.1 0 425.2)"/>
  <g id="change3_1"><path d="m226.58 256.14c-24.61 14.01-51.7-17.36-78.76 38.68-8.44 17.48-41.85-19.34-28.48-74.02 6.02-24.61 19.88-41.42 43.51-46.03 86.24-16.81 84.9 69.34 63.73 81.37" fill="#f3645f"/></g>
  <path d="m2265.8 1690.6c-246.1-140.1-517 173.6-787.6-386.8-84.4-174.8-418.5 193.4-284.8 740.2 60.2 246.1 198.8 414.2 435.1 460.3 862.4 168.1 849-693.4 637.3-813.7zm0 0" fill="none" stroke="#24578f" stroke-linecap="round" stroke-linejoin="round" stroke-miterlimit="10" stroke-width="30" transform="matrix(.1 0 0 -.1 0 425.2)"/>
  <path d="m1780.4 1642.7s-57.2 55.2-96.1 128.8c-38.8 73.5 17.6 184.1 19.1 217.8 1.5 37.6-20.1 100.1-57.9 62.3" fill="none" stroke="#24578f" stroke-linecap="round" stroke-linejoin="round" stroke-miterlimit="10" stroke-width="30" transform="matrix(.1 0 0 -.1 0 425.2)"/>
  <path d="m2371.8 2130.9s157.7 9.5 157.7 138" fill="none" stroke="#24578f" stroke-linecap="round" stroke-linejoin="round" stroke-miterlimit="10" stroke-width="30" transform="matrix(.1 0 0 -.1 0 425.2)"/>
  <path d="m1257.1 2021.9s117.4 510 705.4 426.7" fill="none" stroke="#fff" stroke-linecap="round" stroke-linejoin="round" stroke-miterlimit="10" stroke-width="30" transform="matrix(.1 0 0 -.1 0 425.2)"/>
  <path d="m1257.1 1558.6s39.2-142.5 131.7-235" fill="none" stroke="#fff" stroke-linecap="round" stroke-linejoin="round" stroke-miterlimit="10" stroke-width="30" transform="matrix(.1 0 0 -.1 0 425.2)"/>
  <path d="m2510.5 2365.2s379 0.1 493.3-39.9" fill="none" stroke="#fff" stroke-linecap="round" stroke-linejoin="round" stroke-miterlimit="10" stroke-width="30" transform="matrix(.1 0 0 -.1 0 425.2)"/>
 </g>
</svg>