<?xml version="1.0" encoding="UTF-8"?><svg xmlns="http://www.w3.org/2000/svg" xmlns:xlink="http://www.w3.org/1999/xlink" height="130.5" preserveAspectRatio="xMidYMid meet" version="1.0" viewBox="-5.1 -0.0 131.6 130.5" width="131.6" zoomAndPan="magnify"><g><g><g id="change1_4"><path d="M121.076,47.682c-2.53-12.37-9.64-25.63-24.22-35.74c-12.46-8.64-25.1-11.84-36.39-11.93 l-0.01-0.01c-5.92-0.05-11.46,0.75-16.42,2.07c-4.53,1.2-8.56,2.83-11.93,4.63c-4.92,2.63-8.44,5.62-10.06,8.2 c-3.99,5.39,11.31,22.78,32.4,39.54c-2.33-0.42-4.52-0.55-6.52-0.36c-5.49,0.48-7.32-1.46-11.91-3.05c0,0-16.39-5.91-28.74,4.96 c-12.36,10.88-9.81,36.13,14.14,52.13c23.94,16,64.56,21.88,75.31,8.31c10.74-13.56,1.3-35.23,1.3-35.23 c8.41,3.26,14.52,3.88,16.56,1.12c2.12-1.74,4.03-4.89,5.41-9c0.96-2.82,1.65-6.1,1.99-9.68 C122.446,58.752,122.236,53.312,121.076,47.682z" fill="#ffc05a"/></g><g><g id="change2_1"><path d="M96.856,11.942c14.58,10.11,21.69,23.37,24.22,35.74c-14.92-21.75-36.89-39.29-60.61-47.67 C71.756,0.102,84.396,3.302,96.856,11.942z" fill="#edd1b0"/></g><g id="change2_2"><path d="M121.986,63.642c-0.34,3.58-1.03,6.86-1.99,9.68c-17.36-39.02-49.97-61.12-87.89-66.62 c3.37-1.8,7.4-3.43,11.93-4.63C78.566,12.532,106.576,32.192,121.986,63.642z" fill="#edd1b0"/></g><g id="change1_1"><path d="M121.076,47.682c1.16,5.63,1.37,11.07,0.91,15.96c-15.41-31.45-43.42-51.11-77.95-61.57 c4.96-1.32,10.5-2.12,16.42-2.07l0.01,0.01C84.186,8.392,106.156,25.932,121.076,47.682z" fill="#ffc05a"/></g><g id="change1_2"><path d="M119.996,73.322c-1.38,4.11-3.29,7.26-5.41,9c4.44-6-8.99-29.37-33.72-47.66 c-24.74-18.29-54.38-25.76-58.82-19.76c1.62-2.58,5.14-5.57,10.06-8.2C70.026,12.202,102.636,34.302,119.996,73.322z" fill="#ffc05a"/></g><g id="change3_1"><path d="M80.866,34.662c24.73,18.29,38.16,41.66,33.72,47.66c-2.04,2.76-8.15,2.14-16.56-1.12 c-2.25-0.87-4.67-1.93-7.22-3.17c-2.27-4.75-6.53-9.54-13.56-13.84c-7.95-4.87-15.96-8.52-22.79-9.75h-0.01 c-21.09-16.76-36.39-34.15-32.4-39.54C26.486,8.902,56.126,16.372,80.866,34.662z" fill="#c49e83"/></g><g id="change4_1"><path d="M90.836,78.092c-0.02-0.04-0.03-0.06-0.03-0.06c2.55,1.24,4.97,2.3,7.22,3.17 c0,0,9.44,21.67-1.3,35.23c-10.75,13.57-51.37,7.69-75.31-8.31c-23.95-16-26.5-41.25-14.14-52.13 c12.35-10.87,28.74-4.96,28.74-4.96c4.59,1.59,6.42,3.53,11.91,3.05c-0.71,0.06-1.39,0.17-2.05,0.33c0,0,0,0-0.01,0 c-0.31-0.04-7.04-0.87-14.26-0.39c-3.19,0.22-6.47,0.7-9.34,1.61c-9.5,3.04-8.21,11.42-8.21,11.42v0.01 c-2.69,0.23-4.71,0.98-5.34,2.54c-1.19,2.94,2.15,6.73,4.94,12.72c3.26,6.98,4,15.42,12.46,21.13 c11.77,7.93,41.08,8.27,41.08,8.27c0.34,2.47,14.19,3.42,22.74-5.84c6.59-7.15,4.09-18.56,2.21-24.3 c-0.3-1.07-0.69-2.14-1.19-3.21C90.896,78.242,90.856,78.152,90.836,78.092z" fill="#c3ddda"/></g><g id="change5_1"><path d="M87.796,100.712c3.95-4.45,6.49-11.57,4.35-19.13c1.88,5.74,4.38,17.15-2.21,24.3 c-8.55,9.26-22.4,8.31-22.74,5.84c-0.14-0.98,0.39-1.93,1.22-2.79c2.17-2.24,6.45-3.87,6.62-3.94 C80.316,105.372,84.876,104.002,87.796,100.712z" fill="#e0bb86"/></g><g id="change1_3"><path d="M75.036,104.992c-7.41-0.51-16.25-4.46-24-11.36c-3.95-3.51-7.17-7.39-9.56-11.31 c-2.46-4.03-4.04-8.1-4.64-11.88c-0.79-4.92,0.09-9.34,2.88-12.48c1.63-1.84,3.72-2.99,6.15-3.55c0.01,0,0.01,0,0.01,0 c0.66-0.16,1.34-0.27,2.05-0.33c2-0.19,4.19-0.06,6.52,0.36h0.01c6.83,1.23,14.84,4.88,22.79,9.75 c7.03,4.3,11.29,9.09,13.56,13.84c0,0,0.01,0.02,0.03,0.06c0.02,0.06,0.06,0.15,0.12,0.28c0.22,0.53,0.68,1.66,1.19,3.21 c2.14,7.56-0.4,14.68-4.35,19.13C84.876,104.002,80.316,105.372,75.036,104.992z" fill="#ffc05a"/></g><g id="change6_1"><path d="M75.036,104.992c-0.17,0.07-4.45,1.7-6.62,3.94c0,0-6.29-1.76-13.38-4.57 c-2.85-1.13-5.83-2.43-8.58-3.85c-3.47-1.79-6.58-3.77-8.62-5.85c-0.13-0.13-0.26-0.27-0.39-0.4c-2.57-2.7-4.72-5.72-6.43-8.51 c-3.23-5.28-4.88-9.74-4.88-9.74c5.57,1.17,10.58,3.48,15.34,6.31c2.39,3.92,5.61,7.8,9.56,11.31 C58.786,100.532,67.626,104.482,75.036,104.992z" fill="#e58e1a"/></g><g id="change7_1"><path d="M37.446,94.262c0.13,0.13,0.26,0.27,0.39,0.4c2.04,2.08,5.15,4.06,8.62,5.85 c2.75,1.42,5.73,2.72,8.58,3.85c7.09,2.81,13.38,4.57,13.38,4.57c-0.83,0.86-1.36,1.81-1.22,2.79c0,0-29.31-0.34-41.08-8.27 c-8.46-5.71-9.2-14.15-12.46-21.13c-2.79-5.99-6.13-9.78-4.94-12.72c0.63-1.56,2.65-2.31,5.34-2.54 c8.25-0.72,22.78,3.38,22.78,3.38c0.6,3.78,2.18,7.85,4.64,11.88c-4.76-2.83-9.77-5.14-15.34-6.31c0,0,1.65,4.46,4.88,9.74 C32.726,88.542,34.876,91.562,37.446,94.262z" fill="#f4e3ce"/></g><g id="change5_2"><path d="M31.606,54.022c7.22-0.48,13.95,0.35,14.26,0.39c-2.43,0.56-4.52,1.71-6.15,3.55 c-2.79,3.14-3.67,7.56-2.88,12.48c0,0-14.53-4.1-22.78-3.38v-0.01c0,0-1.29-8.38,8.21-11.42 C25.136,54.722,28.416,54.242,31.606,54.022z" fill="#e0bb86"/></g></g><g><g id="change8_1"><path d="M121.076,47.682c-2.53-12.37-9.64-25.63-24.22-35.74c0,0,10.029,12.325,12.691,19.879 c8.343,23.672-7.686,22.052-7.686,22.052c24.61,37.55-24.615,10.319-24.615,10.319c7.03,4.3,11.29,9.09,13.56,13.84 c2.55,1.24,4.97,2.3,7.22,3.17c8.41,3.26,14.52,3.88,16.56,1.12c2.12-1.74,4.03-4.89,5.41-9c0.96-2.82,1.65-6.1,1.99-9.68 C122.446,58.752,122.236,53.312,121.076,47.682z" fill="#d6eae8"/></g><g id="change9_2"><path d="M24.867,76.769c-0.067,0-0.137-0.007-0.205-0.021c-2.891-0.604-4.701-0.653-7.91-0.537 c-0.536,0.025-1.015-0.411-1.035-0.963s0.411-1.016,0.963-1.036c3.381-0.123,5.295-0.068,8.391,0.578 c0.541,0.113,0.888,0.643,0.774,1.184C25.747,76.446,25.331,76.769,24.867,76.769z" fill="#f9d9af"/></g><g id="change10_2"><path d="M77.305,119.012c-0.519,0-0.956-0.4-0.995-0.925c-0.042-0.55,0.371-1.03,0.921-1.072 c0.62-0.047,15.229-1.329,18.367-15.854c2.043-9.458-2.207-17.566-2.251-17.643c-0.271-0.481-0.102-1.091,0.379-1.363 c0.479-0.271,1.091-0.103,1.363,0.378c0.047,0.084,4.696,8.712,2.464,19.049c-3.458,16.006-20.007,17.414-20.173,17.426 C77.355,119.011,77.329,119.012,77.305,119.012z" fill="#b8d3cf"/></g><g id="change8_2"><path d="M77.248,64.19c0,0,16.969,12.328,9.983,28.779c-6.986,16.451-36.191,0.664-36.191,0.664 c13.276,11.806,29.731,14.975,36.753,7.078C94.816,92.815,97.366,76.506,77.248,64.19z" fill="#d6eae8"/></g><g id="change9_1"><path d="M23.015,88.352c-0.467,0-0.885-0.329-0.979-0.804c-0.108-0.542,0.243-1.068,0.784-1.177 l6.479-1.296c0.549-0.108,1.069,0.243,1.177,0.784c0.108,0.542-0.243,1.068-0.784,1.177l-6.479,1.296 C23.146,88.346,23.079,88.352,23.015,88.352z" fill="#f9d9af"/></g><g id="change9_5"><path d="M31.017,99.022c-0.344,0-0.679-0.177-0.864-0.495c-0.278-0.477-0.118-1.089,0.358-1.368 l5.035-2.944c0.478-0.278,1.09-0.119,1.368,0.358s0.118,1.089-0.358,1.368l-5.035,2.944 C31.361,98.978,31.189,99.022,31.017,99.022z" fill="#f9d9af"/></g><g id="change9_3"><path d="M41.477,105.472c-0.295,0-0.586-0.129-0.783-0.377c-0.344-0.432-0.272-1.062,0.16-1.405 l3.715-2.955c0.432-0.345,1.061-0.271,1.404,0.16c0.344,0.432,0.272,1.062-0.16,1.405l-3.715,2.955 C41.914,105.402,41.695,105.472,41.477,105.472z" fill="#f9d9af"/></g><g id="change9_4"><path d="M53.124,107.992c-0.203,0-0.409-0.062-0.587-0.191c-0.446-0.324-0.546-0.95-0.222-1.396 l0.955-1.315c0.325-0.447,0.947-0.547,1.397-0.222c0.446,0.324,0.546,0.95,0.222,1.396l-0.955,1.315 C53.738,107.849,53.434,107.992,53.124,107.992z" fill="#f9d9af"/></g><g id="change10_1"><path d="M4.345,75.542c-0.463,0-0.878-0.323-0.978-0.794c-0.78-3.702,1.171-13.164,9.213-18.261 c6.845-4.337,14.327-4.312,14.818-4.184c0.534,0.14,0.854,0.686,0.715,1.22c-0.13,0.496-0.611,0.809-1.103,0.738 c-0.334,0-7.147-0.023-13.36,3.915C5.85,63.121,4.806,71.876,5.324,74.336c0.114,0.541-0.232,1.071-0.772,1.185 C4.483,75.535,4.413,75.542,4.345,75.542z" fill="#b8d3cf"/></g><g id="change8_3"><path d="M98.026,81.202c0,0,5.171,18.697-1.92,28.827c-14.323,20.463-74.69-1.907-74.69-1.907 c23.94,16,64.56,21.88,75.31,8.31C107.466,102.872,98.026,81.202,98.026,81.202z" fill="#d6eae8"/></g></g></g></g></svg>